<?xml version="1.0" encoding="UTF-8"?>
<svg xmlns="http://www.w3.org/2000/svg" xmlns:xlink="http://www.w3.org/1999/xlink" width="20pt" height="20pt" viewBox="0 0 20 20" version="1.1">
<g id="surface23894984">
<path style=" stroke:none;fill-rule:nonzero;fill:rgb(0%,0%,0%);fill-opacity:1;" d="M 13.023438 3.953125 L 15.183594 3.953125 C 15.421875 3.953125 15.617188 3.757812 15.617188 3.519531 L 15.617188 0.609375 C 15.617188 0.382812 15.441406 0.195312 15.214844 0.179688 C 14.527344 0.128906 13.1875 0.0625 12.222656 0.0625 C 9.566406 0.0625 7.839844 1.652344 7.839844 4.542969 L 7.839844 7.40625 L 4.816406 7.40625 C 4.578125 7.40625 4.382812 7.601562 4.382812 7.839844 L 4.382812 10.863281 C 4.382812 11.101562 4.578125 11.296875 4.816406 11.296875 L 7.839844 11.296875 L 7.839844 19.503906 C 7.839844 19.742188 8.035156 19.9375 8.273438 19.9375 L 11.296875 19.9375 C 11.535156 19.9375 11.726562 19.742188 11.726562 19.503906 L 11.726562 11.296875 L 14.847656 11.296875 C 15.066406 11.296875 15.253906 11.128906 15.277344 10.910156 L 15.613281 7.886719 C 15.640625 7.632812 15.441406 7.40625 15.183594 7.40625 L 11.726562 7.40625 L 11.726562 5.246094 C 11.726562 4.53125 12.308594 3.953125 13.023438 3.953125 Z M 13.023438 3.953125 "/>
</g>
</svg>
