<?xml version="1.0" encoding="UTF-8"?>
<svg xmlns="http://www.w3.org/2000/svg" xmlns:xlink="http://www.w3.org/1999/xlink" width="20pt" height="20pt" viewBox="0 0 20 20" version="1.1">
<g id="surface3575079">
<path style=" stroke:none;fill-rule:nonzero;fill:rgb(0%,0%,0%);fill-opacity:1;" d="M 6.46875 3.644531 C 2.957031 3.644531 0.113281 6.488281 0.113281 10 C 0.113281 13.511719 2.957031 16.355469 6.46875 16.355469 C 9.980469 16.355469 12.824219 13.511719 12.824219 10 C 12.824219 9.5625 12.777344 9.136719 12.695312 8.730469 L 12.660156 8.585938 L 6.46875 8.585938 L 6.46875 10.707031 L 10.707031 10.707031 C 10.367188 12.710938 8.566406 14.238281 6.46875 14.238281 C 4.128906 14.238281 2.230469 12.339844 2.230469 10 C 2.230469 7.660156 4.128906 5.761719 6.46875 5.761719 C 7.527344 5.761719 8.492188 6.15625 9.238281 6.796875 L 10.753906 5.308594 C 9.625 4.277344 8.121094 3.644531 6.46875 3.644531 Z M 16.355469 6.46875 L 16.355469 8.585938 L 14.238281 8.585938 L 14.238281 10 L 16.355469 10 L 16.355469 12.117188 L 17.769531 12.117188 L 17.769531 10 L 19.886719 10 L 19.886719 8.585938 L 17.769531 8.585938 L 17.769531 6.46875 Z M 16.355469 6.46875 "/>
</g>
</svg>
