<?xml version="1.0" encoding="UTF-8" standalone="no" ?>
<!DOCTYPE svg PUBLIC "-//W3C//DTD SVG 1.1//EN" "http://www.w3.org/Graphics/SVG/1.1/DTD/svg11.dtd">
<svg xmlns="http://www.w3.org/2000/svg" xmlns:xlink="http://www.w3.org/1999/xlink" version="1.1" width="400" height="400" viewBox="0 0 400 400" xml:space="preserve">
<desc>Created with Fabric.js 3.6.2</desc>
<defs>
</defs>
<g transform="matrix(13.43 0 0 13.43 200 200)" id="Layer_1"  >
<path style="stroke: none; stroke-width: 1; stroke-dasharray: none; stroke-linecap: butt; stroke-dashoffset: 0; stroke-linejoin: miter; stroke-miterlimit: 4; fill: rgb(81,81,81); fill-rule: nonzero; opacity: 1;"  transform=" translate(-17.5, -16)" d="M 24.291 14.276 L 14.705 4.69 c -0.878 -0.878 -2.317 -0.878 -3.195 0 l -0.8 0.8 c -0.878 0.877 -0.878 2.316 0 3.194 L 18.024 16 l -7.315 7.315 c -0.878 0.878 -0.878 2.317 0 3.194 l 0.8 0.8 c 0.878 0.879 2.317 0.879 3.195 0 l 9.586 -9.587 c 0.472 -0.471 0.682 -1.103 0.647 -1.723 C 24.973 15.38 24.763 14.748 24.291 14.276 z" stroke-linecap="round" />
</g>
</svg>