<?xml version="1.0" encoding="UTF-8"?>
<svg xmlns="http://www.w3.org/2000/svg" xmlns:xlink="http://www.w3.org/1999/xlink" width="20pt" height="20pt" viewBox="0 0 20 20" version="1.1">
<g id="surface3589916">
<path style=" stroke:none;fill-rule:nonzero;fill:rgb(0%,0%,0%);fill-opacity:1;" d="M 10 0.332031 C 4.660156 0.332031 0.332031 4.660156 0.332031 10 C 0.332031 14.097656 2.882812 17.59375 6.476562 19 C 6.394531 18.238281 6.316406 17.0625 6.511719 16.230469 C 6.6875 15.476562 7.644531 11.425781 7.644531 11.425781 C 7.644531 11.425781 7.355469 10.84375 7.355469 9.988281 C 7.355469 8.644531 8.132812 7.640625 9.105469 7.640625 C 9.929688 7.640625 10.328125 8.261719 10.328125 9.003906 C 10.328125 9.832031 9.800781 11.074219 9.527344 12.222656 C 9.296875 13.183594 10.007812 13.96875 10.957031 13.96875 C 12.675781 13.96875 13.996094 12.15625 13.996094 9.542969 C 13.996094 7.226562 12.332031 5.609375 9.957031 5.609375 C 7.207031 5.609375 5.59375 7.671875 5.59375 9.804688 C 5.59375 10.636719 5.914062 11.527344 6.3125 12.011719 C 6.390625 12.105469 6.402344 12.191406 6.378906 12.289062 C 6.304688 12.59375 6.144531 13.25 6.113281 13.382812 C 6.070312 13.5625 5.972656 13.597656 5.789062 13.511719 C 4.582031 12.949219 3.828125 11.183594 3.828125 9.769531 C 3.828125 6.71875 6.042969 3.917969 10.214844 3.917969 C 13.566406 3.917969 16.175781 6.308594 16.175781 9.5 C 16.175781 12.832031 14.074219 15.515625 11.15625 15.515625 C 10.179688 15.515625 9.257812 15.003906 8.941406 14.402344 C 8.941406 14.402344 8.457031 16.25 8.339844 16.703125 C 8.121094 17.542969 7.53125 18.59375 7.136719 19.238281 C 8.042969 19.515625 9.003906 19.667969 10 19.667969 C 15.339844 19.667969 19.667969 15.339844 19.667969 10 C 19.667969 4.660156 15.339844 0.332031 10 0.332031 Z M 10 0.332031 "/>
</g>
</svg>
