<?xml version="1.0" encoding="UTF-8" standalone="no" ?>
<!DOCTYPE svg PUBLIC "-//W3C//DTD SVG 1.1//EN" "http://www.w3.org/Graphics/SVG/1.1/DTD/svg11.dtd">
<svg xmlns="http://www.w3.org/2000/svg" xmlns:xlink="http://www.w3.org/1999/xlink" version="1.1" width="400" height="400" viewBox="0 0 400 400" xml:space="preserve">
<desc>Created with Fabric.js 3.6.2</desc>
<defs>
</defs>
<g transform="matrix(0.4 0 0 0.4 200 200)" id="Layer_1"  >
<path style="stroke: none; stroke-width: 1; stroke-dasharray: none; stroke-linecap: butt; stroke-dashoffset: 0; stroke-linejoin: miter; stroke-miterlimit: 4; fill: rgb(255,255,255); fill-rule: nonzero; opacity: 1;"  transform=" translate(-253.75, -261.25)" d="M 503.8 106.1 c -18.4 8.2 -38.2 13.7 -58.9 16.2 c 21.2 -12.7 37.4 -32.8 45.1 -56.8 c -19.8 11.8 -41.8 20.3 -65.1 24.9 C 406.1 70.5 379.4 58 349.9 58 c -56.7 0 -102.6 45.9 -102.6 102.6 c 0 8 0.9 15.9 2.7 23.4 c -85.3 -4.3 -160.8 -45.1 -211.4 -107.2 c -8.8 15.1 -13.9 32.8 -13.9 51.6 c 0 35.6 18.1 67 45.6 85.4 c -16.8 -0.5 -32.6 -5.1 -46.5 -12.8 c 0 0.4 0 0.9 0 1.3 c 0 49.7 35.4 91.2 82.3 100.6 c -8.6 2.3 -17.7 3.6 -27 3.6 c -6.6 0 -13 -0.6 -19.3 -1.8 c 13.1 40.8 50.9 70.4 95.8 71.2 c -35.1 27.5 -79.3 43.9 -127.4 43.9 c -8.3 0 -16.4 -0.5 -24.5 -1.4 c 45.4 29.1 99.3 46.1 157.2 46.1 c 188.7 0 291.9 -156.3 291.9 -291.9 c 0 -4.4 -0.1 -8.9 -0.3 -13.3 C 472.6 144.8 490 126.7 503.8 106.1 z" stroke-linecap="round" />
</g>
</svg>