<?xml version="1.0" encoding="UTF-8"?>
<svg xmlns="http://www.w3.org/2000/svg" xmlns:xlink="http://www.w3.org/1999/xlink" width="20pt" height="20pt" viewBox="0 0 20 20" version="1.1">
<g id="surface23894361">
<path style=" stroke:none;fill-rule:nonzero;fill:rgb(0%,0%,0%);fill-opacity:1;" d="M 19.75 3.953125 C 19.03125 4.269531 18.261719 4.488281 17.453125 4.582031 C 18.277344 4.085938 18.910156 3.304688 19.210938 2.371094 C 18.4375 2.828125 17.582031 3.160156 16.671875 3.339844 C 15.941406 2.5625 14.902344 2.074219 13.75 2.074219 C 11.542969 2.074219 9.75 3.867188 9.75 6.078125 C 9.75 6.390625 9.785156 6.695312 9.855469 6.988281 C 6.527344 6.824219 3.578125 5.230469 1.609375 2.808594 C 1.261719 3.398438 1.066406 4.085938 1.066406 4.820312 C 1.066406 6.207031 1.769531 7.433594 2.847656 8.148438 C 2.1875 8.128906 1.574219 7.949219 1.035156 7.648438 C 1.035156 7.667969 1.035156 7.683594 1.035156 7.699219 C 1.035156 9.636719 2.410156 11.257812 4.242188 11.621094 C 3.90625 11.714844 3.554688 11.765625 3.1875 11.765625 C 2.933594 11.765625 2.679688 11.738281 2.4375 11.691406 C 2.945312 13.28125 4.421875 14.4375 6.171875 14.472656 C 4.804688 15.542969 3.078125 16.183594 1.207031 16.183594 C 0.882812 16.183594 0.5625 16.164062 0.25 16.125 C 2.019531 17.261719 4.121094 17.925781 6.382812 17.925781 C 13.742188 17.925781 17.765625 11.828125 17.765625 6.539062 C 17.765625 6.371094 17.761719 6.195312 17.753906 6.023438 C 18.535156 5.457031 19.214844 4.753906 19.75 3.953125 Z M 19.75 3.953125 "/>
</g>
</svg>
