<?xml version="1.0" encoding="UTF-8" standalone="no" ?>
<!DOCTYPE svg PUBLIC "-//W3C//DTD SVG 1.1//EN" "http://www.w3.org/Graphics/SVG/1.1/DTD/svg11.dtd">
<svg xmlns="http://www.w3.org/2000/svg" xmlns:xlink="http://www.w3.org/1999/xlink" version="1.1" width="400" height="400" viewBox="0 0 400 400" xml:space="preserve">
<desc>Created with Fabric.js 3.6.2</desc>
<defs>
</defs>
<g transform="matrix(3.23 0 0 3.23 200 200)" id="twitter"  >
<path style="stroke: none; stroke-width: 1; stroke-dasharray: none; stroke-linecap: butt; stroke-dashoffset: 0; stroke-linejoin: miter; stroke-miterlimit: 4; fill: rgb(0,0,0); fill-rule: nonzero; opacity: 1;"  transform=" translate(-31.98, -32)" d="M 21.9 57.6 c -7.2 0 -14.3 -2 -20.4 -5.8 c -0.4 -0.3 -0.6 -0.7 -0.4 -1.2 c 0.2 -0.4 0.6 -0.7 1.1 -0.6 c 1.2 0.2 2.4 0.3 3.5 0.3 c 4.5 0 8.8 -1.2 12.6 -3.6 c -4.6 -1 -8.4 -4.4 -9.8 -9.1 c -0.1 -0.3 0 -0.7 0.2 -1 s 0.6 -0.4 0.9 -0.3 c 0.3 0.1 0.6 0.1 1 0.1 c -0.9 -0.5 -1.7 -1.2 -2.4 -1.9 c -2.6 -2.5 -4 -5.9 -4 -9.5 l 0 -0.2 c 0 -0.4 0.2 -0.7 0.5 -0.9 c 0.3 -0.2 0.7 -0.2 1 0 c 0.4 0.2 0.8 0.4 1.2 0.6 c -0.8 -1 -1.4 -2.1 -1.8 -3.3 c -0.6 -1.5 -0.9 -3.1 -0.9 -4.8 c 0 -0.7 0.1 -1.4 0.2 -2.1 c 0.3 -1.8 0.9 -3.5 1.9 -5 C 6.3 9 6.6 8.9 6.9 8.8 c 0.3 0 0.6 0.1 0.8 0.3 c 0.9 1 1.9 2 2.9 2.9 c 0.5 0.5 1 0.9 1.6 1.3 c 3 2.5 6.4 4.4 10 5.9 c 0.5 0.2 0.9 0.4 1.4 0.5 c 1.6 0.6 3.3 1.1 5 1.4 c 0.4 0.1 0.8 0.2 1.2 0.2 l 0.5 0.1 c 0.3 0 0.6 0.1 0.9 0.1 c -0.1 -0.6 -0.1 -1.2 -0.1 -1.8 c 0 -4.3 2.1 -8.4 5.7 -10.9 c 0.2 -0.2 0.5 -0.3 0.7 -0.5 c 0 0 0 0 0 0 c 0 0 0 0 0 0 c 2.1 -1.3 4.5 -1.9 6.9 -1.9 c 3.5 0 7 1.4 9.5 3.9 c 0.6 -0.1 1.3 -0.3 1.9 -0.5 c 0.8 -0.2 1.6 -0.5 2.4 -0.9 c 0.9 -0.4 1.9 -0.8 2.7 -1.3 c 0.4 -0.2 0.8 -0.2 1.1 0.1 c 0.3 0.3 0.5 0.7 0.3 1.1 c -0.5 1.6 -1.4 3.1 -2.5 4.5 c -0.1 0.1 -0.1 0.1 -0.2 0.2 c 0.7 -0.2 1.3 -0.4 2 -0.7 c 0.5 -0.2 1 0 1.2 0.4 c 0.2 0.4 0.2 1 -0.2 1.3 c -0.8 0.7 -1.7 1.4 -2.6 2 c -0.7 0.5 -1.3 0.9 -2 1.3 c 0 0.7 0 1.3 0 2 c 0 11.4 -4.8 22.4 -13.2 30.1 c 0 0 -0.1 0 -0.1 0.1 C 38.1 55 30.2 57.6 21.9 57.6 z M 6.4 52.2 c 4.8 2.2 10.1 3.4 15.5 3.4 c 7.8 0 15.3 -2.4 21.6 -7 c 8 -7.3 12.5 -17.8 12.5 -28.6 c 0 -0.8 0 -1.7 -0.1 -2.5 c 0 -0.4 0.2 -0.7 0.5 -0.9 c 0.2 -0.1 0.4 -0.2 0.6 -0.4 c 0 0 -0.1 0 -0.1 0 c -0.2 0 -0.3 0 -0.5 0.1 c -0.2 0.1 -0.5 0.2 -0.8 0.1 c -0.3 -0.1 -0.5 -0.3 -0.6 -0.6 c -0.1 -0.3 -0.1 -0.6 0.1 -0.9 c 0.1 -0.2 0.4 -0.4 0.7 -0.5 c 0.1 -0.1 0.3 -0.2 0.4 -0.3 c 0.8 -0.6 1.5 -1.2 2.2 -2 c 0.4 -0.4 0.7 -0.9 1 -1.3 c -0.1 0.1 -0.2 0.1 -0.4 0.2 c -0.9 0.4 -1.7 0.7 -2.6 0.9 c -0.8 0.3 -1.7 0.5 -2.6 0.6 c -0.3 0.1 -0.7 -0.1 -0.9 -0.3 c -2.1 -2.3 -5.2 -3.7 -8.4 -3.7 c -2 0 -3.9 0.5 -5.6 1.4 c 0 0 -0.1 0.1 -0.1 0.1 c -0.2 0.2 -0.4 0.3 -0.6 0.3 c -0.1 0.1 -0.2 0.1 -0.3 0.2 c -3 2.1 -4.8 5.6 -4.8 9.3 c 0 0.9 0.1 1.8 0.3 2.7 c 0.1 0.3 0 0.6 -0.2 0.9 c -0.2 0.2 -0.5 0.4 -0.9 0.3 c -0.8 -0.1 -1.6 -0.2 -2.3 -0.3 l -0.5 -0.1 c -0.4 -0.1 -0.8 -0.2 -1.3 -0.2 c -1.8 -0.4 -3.6 -0.9 -5.3 -1.5 c -0.5 -0.2 -1 -0.4 -1.4 -0.5 c -3.8 -1.5 -7.4 -3.6 -10.6 -6.2 c -0.6 -0.4 -1.1 -0.9 -1.6 -1.4 c -0.7 -0.6 -1.4 -1.3 -2.1 -2 c -0.5 1 -0.8 2 -1 3.1 c -0.1 0.6 -0.1 1.2 -0.1 1.7 c 0 1.4 0.2 2.8 0.7 4 c 0.8 2 2.1 3.7 3.8 5 c 0.4 0.3 0.5 0.7 0.3 1.2 c -0.2 0.4 -0.6 0.7 -1 0.6 c -1.3 -0.1 -2.5 -0.4 -3.7 -0.9 c 0.3 2.5 1.4 4.9 3.3 6.7 c 1.5 1.5 3.4 2.5 5.4 3 c 0.4 0.1 0.8 0.5 0.8 1 c 0 0.5 -0.3 0.9 -0.8 1 c -1.3 0.3 -2.7 0.5 -4.1 0.4 c 1.8 3.9 5.7 6.4 10.1 6.5 c 0.4 0 0.8 0.3 0.9 0.7 c 0.1 0.4 0 0.8 -0.3 1.1 C 17.2 50.1 12 52 6.4 52.2 z M 44.2 49.3 L 44.2 49.3 L 44.2 49.3 z" stroke-linecap="round" />
</g>
</svg>