<?xml version="1.0" encoding="UTF-8"?>
<svg xmlns="http://www.w3.org/2000/svg" xmlns:xlink="http://www.w3.org/1999/xlink" width="20pt" height="20pt" viewBox="0 0 20 20" version="1.1">
<g id="surface3442476">
<path style=" stroke:none;fill-rule:nonzero;fill:rgb(0%,0%,0%);fill-opacity:1;" d="M 16.976562 1.28125 C 14.015625 1.277344 12.382812 2.933594 11.382812 6.167969 C 11.90625 5.972656 12.433594 5.734375 12.910156 5.734375 C 13.910156 5.734375 14.246094 6.105469 14.101562 7.265625 C 14.054688 7.988281 13.769531 9.15625 12.910156 10.507812 C 12.050781 11.808594 11.300781 12.179688 10.871094 12.179688 C 10.347656 12.179688 9.949219 11.425781 9.519531 9.398438 C 9.375 8.820312 9.042969 7.515625 8.660156 5.058594 C 8.324219 2.789062 7.214844 1.570312 5.640625 1.714844 C 4.972656 1.765625 4.171875 2.386719 2.835938 3.542969 C 1.882812 4.410156 0.976562 5.039062 -0.0273438 5.90625 L 0.925781 7.132812 C 1.832031 6.503906 2.359375 6.261719 2.503906 6.261719 C 3.171875 6.261719 3.789062 7.324219 4.410156 9.496094 C 4.9375 11.472656 5.507812 13.449219 6.035156 15.429688 C 6.847656 17.597656 7.847656 18.660156 8.996094 18.660156 C 10.90625 18.660156 13.195312 16.925781 15.917969 13.355469 C 18.589844 9.976562 19.933594 7.179688 20.027344 5.203125 C 20.125 2.601562 19.074219 1.328125 16.976562 1.28125 Z M 16.976562 1.28125 "/>
</g>
</svg>
