<?xml version="1.0" encoding="UTF-8"?>
<svg xmlns="http://www.w3.org/2000/svg" xmlns:xlink="http://www.w3.org/1999/xlink" width="20pt" height="20pt" viewBox="0 0 20 20" version="1.1">
<g id="surface3588143">
<path style=" stroke:none;fill-rule:nonzero;fill:rgb(0%,0%,0%);fill-opacity:1;" d="M 18.835938 5.339844 C 18.65625 4.363281 17.816406 3.652344 16.835938 3.429688 C 15.375 3.117188 12.664062 2.894531 9.734375 2.894531 C 6.804688 2.894531 4.050781 3.117188 2.585938 3.429688 C 1.609375 3.652344 0.765625 4.316406 0.585938 5.339844 C 0.410156 6.449219 0.230469 8.003906 0.230469 10 C 0.230469 11.996094 0.410156 13.550781 0.632812 14.660156 C 0.808594 15.636719 1.652344 16.347656 2.628906 16.570312 C 4.183594 16.882812 6.847656 17.105469 9.777344 17.105469 C 12.710938 17.105469 15.375 16.882812 16.925781 16.570312 C 17.902344 16.347656 18.746094 15.683594 18.925781 14.660156 C 19.101562 13.550781 19.324219 11.953125 19.367188 10 C 19.277344 8.003906 19.058594 6.449219 18.835938 5.339844 Z M 7.335938 13.109375 L 7.335938 6.890625 L 12.753906 10 Z M 7.335938 13.109375 "/>
</g>
</svg>
